<svg width="592" height="125" viewBox="0 0 592 125" fill="none" xmlns="http://www.w3.org/2000/svg">
<path d="M156.6 36.5C156.5 42.2 163.1 44.5 171.1 47.3L176 49C187.7 53.1 196.2 61.9 195.5 76.8C194.7 93.7 182.5 102 164.3 102C155.4 102 144.5 99.7 139.1 95.4C135.3 92.3 133.5 86.9 136.5 82.3C138 80.1 140.6 78.7 143.3 78.7C146.6 78.7 148.8 80.4 150.7 81.3C153.7 82.7 158.1 84.3 163.9 84.3C170.9 84.3 174.7 80.9 174.8 75.8C174.9 69.5 167.1 67 159 64L154.2 62.2C138.9 56.5 134.2 42.4 137.5 29.7C140.7 17.3 152 11.1 165.7 11.1C175.5 11.1 181.5 13.1 185.2 15.1C189.8 17.6 193 22.6 191.5 27.4C190.2 31.5 186.7 33.1 182.9 33.1C181.4 33.1 179.2 32.5 178.3 31.8C175.9 30.2 172.4 28.8 166.4 28.8C161.6 28.8 156.7 30.7 156.6 36.5ZM232.053 42.9V70.2C232.053 79.6 238.753 84.3 245.953 84.3C250.553 84.3 253.853 83.6 256.553 82.4C258.053 81.7 259.853 80.6 261.753 80.3C265.353 79.7 268.353 80.8 270.353 84.1C272.853 88.2 271.253 92.7 267.753 95.5C262.253 100 253.653 102 245.953 102C228.653 102 211.453 93.2 211.453 71.1V42C211.453 19.9 228.653 11.1 245.953 11.1C254.853 11.1 261.753 13.2 265.653 16C269.753 18.9 271.753 23.7 269.353 27.9C267.353 31.4 263.653 32.8 260.253 32.2C257.953 31.8 256.253 30.7 254.753 30.1C252.353 29.2 250.053 28.8 245.953 28.8C238.753 28.8 232.053 33.5 232.053 42.9ZM386.109 33.1V47.4H413.409C419.209 47.4 421.509 52.2 421.509 56.2C421.509 60.2 419.309 64.7 413.409 64.7H386.109V80C386.109 82.4 386.709 82.9 389.009 82.9H415.309C421.209 82.9 423.409 87.4 423.409 91.5C423.409 95.6 421.109 100.4 415.309 100.4H381.209C369.209 100.4 365.609 96.1 365.609 84.6V28.5C365.609 17 369.209 12.7 381.209 12.7H414.309C420.109 12.7 422.409 17.5 422.409 21.6C422.409 25.7 420.209 30.2 414.309 30.2H389.009C386.709 30.2 386.109 30.7 386.109 33.1ZM457.518 12.7H472.418C489.718 12.7 507.918 21.9 507.918 49.7V63.4C507.918 91.2 489.718 100.4 472.418 100.4H457.518C445.518 100.4 441.918 96.1 441.918 84.6V28.5C441.918 17 445.518 12.7 457.518 12.7ZM487.518 65V48.1C487.518 36.4 481.218 30 471.818 30H465.218C462.918 30 462.318 30.5 462.318 32.9V80.2C462.318 82.6 462.918 83.1 465.218 83.1H471.818C481.218 83.1 487.518 76.7 487.518 65ZM583.602 11.9C588.302 13.3 591.502 19 587.902 25.8L564.202 71.2V100H544.602V70.4L520.902 25.8C517.502 19.5 520.302 14 524.702 12.2C530.802 9.6 536.802 12 539.702 18L554.502 49.1L570.002 18C572.402 13.2 577.102 9.79999 583.602 11.9Z" fill="#016B61"/>
<path d="M54.5 0C74.168 0 91.4017 10.419 100.985 26.0381L74.5898 47.5244L57.5586 33.9131C56.3055 32.8847 54.6093 32.3067 52.8408 32.3066C51.0722 32.3066 49.3753 32.8846 48.1221 33.9131L39.7637 40.8008C38.5119 41.834 37.8086 43.2352 37.8086 44.6953C37.8087 46.1552 38.512 47.5557 39.7637 48.5889L69.6953 73.3867C70.9491 74.4193 72.6493 74.9999 74.4219 75C76.1946 75 77.8955 74.4194 79.1494 73.3867L108.727 49.0107C108.907 50.816 109 52.6472 109 54.5C109 84.5995 84.5995 109 54.5 109C24.4005 109 0 84.5995 0 54.5C0 24.4005 24.4005 0 54.5 0Z" fill="#016B61"/>
<path d="M295.821 93.9043C296.591 93.9043 297.072 94.7376 296.688 95.4043L294.322 99.501C293.937 100.168 292.975 100.168 292.59 99.501L290.225 95.4043C289.84 94.7376 290.321 93.9043 291.091 93.9043H295.821ZM341.456 13C345.874 13 349.456 16.5817 349.456 21V92C349.456 96.4183 345.874 100 341.456 100H337.456C333.038 100 329.456 96.4183 329.456 92V66H315.456C311.038 66 307.456 62.4183 307.456 58V54C307.456 49.5817 311.038 46 315.456 46H329.456V21C329.456 16.5817 333.038 13 337.456 13H341.456ZM301.365 82.0762C302.093 82.0762 302.576 82.8281 302.275 83.4902L298.454 91.8984C298.292 92.2554 297.935 92.4844 297.543 92.4844H289.369C288.977 92.4844 288.62 92.2554 288.458 91.8984L284.636 83.4902C284.335 82.8281 284.82 82.0762 285.547 82.0762H301.365ZM294.919 13C299.337 13.0002 302.919 16.5819 302.919 21V77.1836C302.919 78.8403 301.576 80.1834 299.919 80.1836H286.993C285.337 80.1834 283.993 78.8403 283.993 77.1836V21C283.993 16.5819 287.575 13.0002 291.993 13H294.919Z" fill="#016B61"/>
</svg>
